<svg width="186" height="51" viewBox="0 0 2186 851" fill="none" xmlns="http://www.w3.org/2000/svg">
<path fill-rule="evenodd" clip-rule="evenodd" d="M2186 0V851H0V0H2186Z" fill="#000022"/>
<path fill-rule="evenodd" clip-rule="evenodd" d="M2022.45 71.0407C2082.18 75.9143 2180.28 100.494 2182.41 233.922C2185.52 428.059 1958.02 401.54 1911.7 403.766C1911.61 404.027 1911.95 559.66 1911.95 559.66H1810.15V71.0407C1810.15 71.0407 1962.74 66.1795 2022.45 71.0407ZM1911.95 161.203L1911.21 315.021C1911.21 315.021 1975.65 316.948 2007.7 315.928C2045.84 314.909 2079.23 283.305 2079.4 238.622C2079.48 218.866 2065.67 161.302 2004.64 160.793L1911.95 161.203Z" fill="white"/>
<path fill-rule="evenodd" clip-rule="evenodd" d="M2022.45 71.0407C2082.18 75.9143 2180.28 100.494 2182.41 233.922C2185.52 428.059 1988.97 403.007 1911.7 403.766C1911.61 404.027 1911.95 559.66 1911.95 559.66H1810.15V71.0407C1810.15 71.0407 1962.74 66.1795 2022.45 71.0407ZM1911.95 161.203L1911.21 315.021C1911.21 315.021 1975.65 316.948 2007.7 315.928C2045.84 314.909 2079.23 283.305 2079.4 238.622C2079.48 218.866 2065.67 161.302 2004.64 160.793L1911.95 161.203Z" fill="white"/>
<path d="M1028.11 757.652C1036.65 757.652 1042.54 755.414 1045.77 750.938H1046.51L1046.89 774.063C1043.57 777.295 1037.52 779.45 1028.74 780.528C1026.33 780.859 1023.31 781.025 1019.66 781.025C1016.18 781.025 1012.33 780.362 1008.1 779.036C1004.04 777.71 1000.56 775.555 997.657 772.571C991.607 766.355 988.581 756.698 988.581 743.603V698.347H973.539C973.456 696.358 973.415 694.369 973.415 692.38V677.087C973.415 675.927 973.456 675.347 973.539 675.347H988.581V647H1012.95V675.347H1040.3V698.347H1012.95V739.003C1012.95 749.446 1015.85 755.372 1021.65 756.781C1023.47 757.362 1025.63 757.652 1028.11 757.652ZM1062.68 728.31C1062.68 720.519 1064 713.308 1066.65 706.677C1069.31 700.047 1073.04 694.245 1077.84 689.272C1088.2 678.662 1101.75 673.358 1118.49 673.358C1132.67 673.358 1144.06 678.041 1152.68 687.407C1161.05 696.441 1165.24 707.796 1165.24 721.472C1165.24 726.777 1164.87 730.382 1164.12 732.289C1157.49 734.112 1143.98 735.024 1123.59 735.024H1088.41C1090.15 742.152 1094.17 747.705 1100.47 751.684C1106.85 755.662 1115.05 757.652 1125.08 757.652C1135.69 757.652 1144.77 755.745 1152.31 751.933C1154.3 750.938 1155.79 749.985 1156.78 749.073C1156.7 751.891 1156.54 754.751 1156.29 757.652L1155.29 773.193C1150.24 776.674 1142.03 779.077 1130.68 780.404C1127.36 780.818 1124.17 781.025 1121.11 781.025C1104.28 781.025 1090.36 776.094 1079.33 766.23C1068.23 756.367 1062.68 743.727 1062.68 728.31ZM1138.76 715.753C1136.02 701.497 1128.27 694.369 1115.51 694.369C1105.4 694.369 1097.69 698.72 1092.39 707.423C1090.81 710.076 1089.61 712.977 1088.78 716.126C1090.36 716.209 1092.3 716.292 1094.63 716.375H1101.96C1104.45 716.458 1106.81 716.499 1109.05 716.499H1114.76C1118.16 716.499 1121.48 716.458 1124.71 716.375L1132.92 716.002C1135.07 716.002 1137.02 715.919 1138.76 715.753ZM1266.06 745.592L1268.42 769.836C1260.96 777.295 1249.28 781.025 1233.36 781.025C1217.95 781.025 1205.39 776.342 1195.7 766.976C1185.75 757.444 1180.78 744.804 1180.78 729.056C1180.78 713.06 1185.67 699.922 1195.45 689.645C1205.81 678.787 1219.65 673.358 1236.97 673.358C1249.32 673.358 1259.64 676.051 1267.93 681.439L1263.95 706.926H1263.2C1260.05 703.03 1256.7 700.502 1253.13 699.342C1247.41 697.353 1241.69 696.358 1235.98 696.358C1230.26 696.358 1225.78 697.063 1222.55 698.472C1219.32 699.964 1216.54 701.994 1214.22 704.564C1209.58 709.868 1207.26 716.914 1207.26 725.699C1207.26 741.282 1212.6 751.435 1223.29 756.16C1227.02 757.817 1230.96 758.646 1235.11 758.646C1239.33 758.646 1242.94 758.273 1245.92 757.527C1249.07 756.781 1251.93 755.787 1254.5 754.543C1259.89 751.891 1263.53 748.783 1265.44 745.219L1266.06 745.592ZM1315.79 710.283V768.468C1315.79 774.187 1315.95 777.917 1316.29 779.658H1291.42V637.054H1315.79V683.179C1324.41 676.714 1333.28 673.482 1342.39 673.482C1353.5 673.482 1362.45 677.17 1369.25 684.547C1375.88 691.924 1379.19 701.663 1379.19 713.764V753.549C1379.19 764.738 1379.36 771.452 1379.69 773.69C1380.02 776.011 1380.48 777.503 1381.06 778.166C1381.64 778.829 1382.13 779.409 1382.55 779.906L1382.3 780.279C1376.91 779.865 1373.02 779.658 1370.61 779.658H1363.53C1361.29 779.658 1358.39 779.74 1354.82 779.906V722.218C1354.82 713.018 1352.79 706.221 1348.73 701.829C1345.67 698.513 1341.52 696.855 1336.3 696.855C1328.51 696.855 1321.67 701.331 1315.79 710.283ZM1434.39 709.91V766.852C1434.39 772.737 1434.64 777.005 1435.13 779.658H1410.15V675.471H1434.39V684.298C1443.17 677.087 1452.54 673.482 1462.48 673.482C1473.42 673.482 1482.13 677.212 1488.59 684.671C1495.14 692.048 1498.41 701.746 1498.41 713.764V753.549C1498.41 764.738 1498.58 771.452 1498.91 773.69C1499.24 776.011 1499.66 777.503 1500.15 778.166C1500.73 778.829 1501.23 779.409 1501.64 779.906L1501.52 780.279C1496.13 779.865 1492.2 779.658 1489.71 779.658H1482.75C1480.59 779.658 1477.73 779.74 1474.17 779.906V725.575C1474.17 706.097 1468.24 696.358 1456.39 696.358C1447.61 696.358 1440.27 700.875 1434.39 709.91ZM1519.92 728.062C1519.92 720.768 1521.16 713.805 1523.65 707.175C1526.14 700.461 1529.74 694.618 1534.46 689.645C1544.58 678.869 1557.75 673.482 1574 673.482C1590.16 673.482 1602.96 678.538 1612.41 688.65C1621.53 698.43 1626.09 711.029 1626.09 726.445C1626.09 741.945 1621.4 754.792 1612.04 764.987C1602.18 775.762 1589.04 781.149 1572.63 781.149C1555.81 781.149 1542.59 775.845 1532.97 765.236C1524.27 755.621 1519.92 743.23 1519.92 728.062ZM1544.16 727.44C1544.16 731.667 1544.87 735.729 1546.27 739.624C1547.68 743.52 1549.67 746.877 1552.24 749.695C1557.79 755.745 1565.05 758.771 1574 758.771C1582.29 758.771 1588.83 755.828 1593.64 749.943C1598.28 744.224 1600.6 736.765 1600.6 727.564C1600.6 718.281 1598.2 710.78 1593.39 705.061C1588.25 698.928 1581.25 695.861 1572.38 695.861C1563.35 695.861 1556.26 699.135 1551.12 705.683C1546.48 711.65 1544.16 718.903 1544.16 727.44ZM1669.97 631.086V768.468C1669.97 774.187 1670.1 777.917 1670.34 779.658H1645.11V631.086H1669.97ZM1690.24 728.062C1690.24 720.768 1691.48 713.805 1693.97 707.175C1696.45 700.461 1700.02 694.618 1704.66 689.645C1714.85 678.869 1728.03 673.482 1744.19 673.482C1760.35 673.482 1773.2 678.538 1782.73 688.65C1791.85 698.43 1796.4 711.029 1796.4 726.445C1796.4 741.945 1791.72 754.792 1782.36 764.987C1772.41 775.762 1759.27 781.149 1742.95 781.149C1726.04 781.149 1712.82 775.845 1703.29 765.236C1694.59 755.621 1690.24 743.23 1690.24 728.062ZM1714.48 727.44C1714.48 731.667 1715.18 735.729 1716.59 739.624C1717.92 743.52 1719.91 746.877 1722.56 749.695C1728.03 755.745 1735.24 758.771 1744.19 758.771C1752.56 758.771 1759.11 755.828 1763.83 749.943C1768.47 744.224 1770.79 736.765 1770.79 727.564C1770.79 718.281 1768.43 710.78 1763.71 705.061C1758.57 698.928 1751.57 695.861 1742.7 695.861C1733.66 695.861 1726.58 699.135 1721.44 705.683C1716.8 711.65 1714.48 718.903 1714.48 727.44ZM1843.89 751.933C1841.49 755.165 1840.29 757.735 1840.29 759.641C1840.29 761.547 1840.58 763.039 1841.16 764.117C1841.74 765.111 1843.02 766.064 1845.01 766.976C1849.4 769.048 1856.62 770.872 1866.64 772.447C1876.67 773.938 1884.5 775.845 1890.14 778.166C1895.86 780.486 1900.5 783.346 1904.06 786.744C1910.61 793.209 1913.88 802.368 1913.88 814.221C1913.88 825.99 1909.74 835.066 1901.45 841.448C1893.17 847.83 1880.86 851.022 1864.53 851.022C1848.04 851.022 1834.74 847.416 1824.62 840.205C1814.51 832.994 1809.33 823.462 1809.08 811.61C1808.67 797.768 1814.1 787.78 1825.37 781.647C1822.3 779.077 1820.23 776.094 1819.15 772.695C1818.16 769.297 1817.66 765.401 1817.66 761.008C1817.66 753.632 1820.89 747.374 1827.36 742.235C1819.82 735.107 1816.05 726.28 1816.05 715.753C1816.05 703.901 1820.31 693.996 1828.85 686.039C1837.8 677.668 1849.4 673.482 1863.66 673.482C1871.2 673.482 1878.25 674.85 1884.79 677.585C1893.41 673.938 1899.75 670.788 1903.82 668.136C1907.88 665.318 1910.49 663.287 1911.65 662.044H1912.27C1912.85 663.701 1913.51 665.981 1914.26 668.882L1916.12 676.093C1917.7 681.978 1918.65 685.998 1918.98 688.153C1916.08 691.385 1910.94 693.664 1903.57 694.991C1906.38 700.544 1907.79 706.387 1907.79 712.521C1907.79 718.737 1906.76 724.373 1904.69 729.429C1902.53 734.402 1899.51 738.754 1895.61 742.484C1886.91 750.689 1875.8 754.792 1862.29 754.792C1855.75 754.792 1849.61 753.839 1843.89 751.933ZM1841.41 707.05C1840.41 709.454 1839.92 711.899 1839.92 714.386C1839.92 716.789 1840.41 719.11 1841.41 721.348C1842.48 723.669 1844.02 725.699 1846.01 727.44C1850.48 731.418 1856.33 733.408 1863.54 733.408C1868.92 733.408 1873.61 731.584 1877.58 727.937C1881.81 723.959 1883.92 719.193 1883.92 713.64C1883.92 708.004 1882.02 703.445 1878.21 699.964C1874.48 696.483 1869.25 694.742 1862.54 694.742C1851.6 694.742 1844.56 698.845 1841.41 707.05ZM1865.77 829.886C1882.1 829.886 1890.26 824.167 1890.26 812.729C1890.26 807.258 1887.61 802.865 1882.31 799.55C1876.34 795.737 1866.06 792.795 1851.48 790.723L1846.38 789.728C1841.99 792.049 1838.76 795.074 1836.68 798.804C1834.61 802.451 1833.58 805.932 1833.58 809.248C1833.66 812.48 1834.45 815.298 1835.94 817.702C1837.51 820.105 1839.67 822.178 1842.4 823.918C1848.45 827.897 1856.24 829.886 1865.77 829.886ZM1955.78 661.919L1933.28 645.757C1938.58 637.468 1944.14 630.175 1949.94 623.875L1971.32 640.659C1968.5 644.224 1965.85 647.663 1963.36 650.979C1963.36 650.979 1960.84 654.626 1955.78 661.919ZM1959.51 675.471V768.468C1959.51 774.187 1959.63 777.917 1959.88 779.658H1934.65V675.471H1959.51ZM1982.38 728.435C1982.38 720.644 1983.71 713.432 1986.36 706.802C1989.01 700.088 1992.79 694.245 1997.68 689.272C2008.04 678.745 2021.59 673.482 2038.33 673.482C2052.5 673.482 2063.85 678.165 2072.39 687.531C2080.84 696.565 2085.07 707.921 2085.07 721.597C2085.07 726.818 2084.66 730.424 2083.83 732.413C2077.2 734.237 2063.69 735.148 2043.3 735.148H2008.24C2009.98 742.276 2014 747.83 2020.3 751.808C2026.6 755.704 2034.81 757.652 2044.92 757.652C2055.44 757.652 2064.52 755.787 2072.14 752.057C2074.13 751.062 2075.62 750.109 2076.62 749.197C2076.45 752.015 2076.29 754.875 2076.12 757.776L2075 773.317C2069.95 776.798 2061.78 779.202 2050.51 780.528C2047.2 780.942 2044.01 781.149 2040.94 781.149C2024.03 781.149 2010.07 776.218 1999.04 766.355C1987.94 756.491 1982.38 743.851 1982.38 728.435ZM2058.59 715.878C2055.86 701.538 2048.07 694.369 2035.22 694.369C2025.11 694.369 2017.44 698.72 2012.22 707.423C2010.65 710.076 2009.4 713.018 2008.49 716.251C2010.15 716.333 2012.14 716.375 2014.46 716.375H2021.79C2024.28 716.458 2026.64 716.499 2028.88 716.499H2034.6C2037.91 716.499 2041.23 716.458 2044.54 716.375L2052.62 716.126C2054.86 716.043 2056.85 715.96 2058.59 715.878ZM2141.89 781.149C2123.15 781.149 2109.02 777.71 2099.49 770.83C2099.58 768.841 2099.78 766.603 2100.11 764.117L2100.98 756.906C2101.48 752.181 2101.81 749.239 2101.98 748.078C2102.14 746.918 2102.23 746.296 2102.23 746.214C2102.31 746.048 2102.85 746.586 2103.84 747.83C2104.84 748.907 2106.74 750.316 2109.56 752.057C2112.38 753.715 2115.61 755.165 2119.26 756.408C2127.13 759.144 2135.34 760.511 2143.87 760.511C2155.39 760.511 2161.15 756.657 2161.15 748.949C2161.15 746.545 2160.08 744.722 2157.92 743.478C2153.94 741.489 2148.14 739.997 2140.52 739.003C2132.98 737.925 2126.76 736.392 2121.87 734.402C2117.06 732.413 2113.13 730.051 2110.06 727.316C2104.42 722.011 2101.61 715.132 2101.61 706.677C2101.61 696.317 2105.58 688.153 2113.54 682.185C2121.41 676.383 2132.35 673.482 2146.36 673.482C2160.12 673.482 2171.89 677.377 2181.67 685.169C2181.25 686.909 2180.76 688.608 2180.18 690.266C2178.68 694.576 2177.56 697.726 2176.82 699.715L2174.58 705.558C2174.42 706.056 2174.29 706.304 2174.21 706.304C2174.13 706.304 2173.59 705.641 2172.59 704.315C2168.45 699.425 2161.94 696.234 2153.07 694.742C2150.34 694.162 2147.56 693.872 2144.74 693.872C2132.64 693.872 2126.59 697.519 2126.59 704.812C2126.59 707.382 2127.84 709.33 2130.32 710.656C2135.05 713.142 2141.51 715.007 2149.72 716.251C2157.92 717.411 2164.18 719.027 2168.49 721.099C2172.72 723.089 2176.11 725.534 2178.68 728.435C2183.49 733.574 2185.89 740.412 2185.89 748.949C2185.89 758.398 2182.12 766.023 2174.58 771.825C2166.79 778.041 2155.89 781.149 2141.89 781.149Z" fill="white"/>
<path fill-rule="evenodd" clip-rule="evenodd" d="M1416.59 70.5434L1417.54 562.569H1740.37V469.461H1522.24V364.802H1705.55V271.68H1519.33V164.075H1737.45V68.1315L1416.59 70.5434Z" fill="white"/>
<path fill-rule="evenodd" clip-rule="evenodd" d="M118.103 0H721.048C786.278 0 839.151 52.8765 839.151 118.111V721.099C839.151 786.334 786.278 839.21 721.048 839.21H118.103C52.8727 839.21 0 786.334 0 721.099V118.111C0 52.8765 52.8727 0 118.103 0Z" fill="white"/>
<path fill-rule="evenodd" clip-rule="evenodd" d="M556.948 186.491H624.08C632.322 186.491 638.998 193.168 638.998 201.411V268.547C638.998 276.79 632.322 283.467 624.08 283.467H556.948C548.705 283.467 542.029 276.79 542.029 268.547V201.411C542.029 193.168 548.705 186.491 556.948 186.491Z" fill="#000022"/>
<path fill-rule="evenodd" clip-rule="evenodd" d="M306.607 294.992L464.765 295.116C464.765 295.116 659.585 296.049 658.503 489.863C657.422 683.664 478.192 675.993 478.192 675.993V769.065H387.986V588.728L478.192 588.74C478.192 588.74 568.298 584.463 568.347 486.953C568.397 389.443 478.192 382.245 478.192 382.245L389.416 382.294L306.607 294.992Z" fill="#000022"/>
<path fill-rule="evenodd" clip-rule="evenodd" d="M479.646 88.4963H315.334C315.334 88.4963 221.709 86.0595 167.009 178.659C112.322 271.258 155.435 356.148 172.827 373.517C190.22 390.898 329.867 527.671 329.867 527.671H481.125V440.418H370.581L261.442 331.258C261.442 331.258 218.974 293.761 239.723 239.741C260.46 185.708 307.464 184.639 329.867 184.477C352.269 184.316 479.87 184.477 479.87 184.477L479.646 88.4963Z" fill="#000022"/>
<path fill-rule="evenodd" clip-rule="evenodd" d="M140.48 589.312H312.039C320.282 589.312 326.958 595.989 326.958 604.232V671.368C326.958 679.611 320.282 686.288 312.039 686.288H140.48C132.237 686.288 125.562 679.611 125.562 671.368V604.232C125.562 595.989 132.237 589.312 140.48 589.312Z" fill="#000022"/>
<path fill-rule="evenodd" clip-rule="evenodd" d="M655.159 88.2725H722.291C730.533 88.2725 737.209 94.9488 737.209 103.192V170.329C737.209 178.571 730.533 185.248 722.291 185.248H655.159C646.917 185.248 640.241 178.571 640.241 170.329V103.192C640.241 94.9488 646.917 88.2725 655.159 88.2725Z" fill="#000022"/>
<path fill-rule="evenodd" clip-rule="evenodd" d="M1321.58 100.133C1321.58 100.133 1004.88 -28.931 990.036 199.011C982.826 309.911 1109.41 347.781 1126.72 353.165C1144.04 358.536 1250.05 371.702 1248.87 428.781C1247.7 485.872 1103.27 487.09 990.036 425.871C988.582 425.088 987.935 526.179 987.935 526.179C987.935 526.179 1344.94 652.868 1351.34 421.246C1355.2 281.664 1188.65 271.034 1132.54 251.365C1076.87 231.858 1067.23 141.472 1178.59 155.074C1288.64 168.513 1321.58 199.011 1321.58 199.011V100.133Z" fill="white"/>
<path fill-rule="evenodd" clip-rule="evenodd" d="M1321.58 100.133C1321.58 100.133 1278.22 79.9302 1220.06 69.3748C1126.36 52.3792 999.198 58.3842 990.036 199.011C982.826 309.911 1109.41 347.781 1126.72 353.165C1144.04 358.536 1250.05 371.702 1248.87 428.781C1247.7 485.872 1103.27 487.09 990.036 425.871C988.582 425.088 987.935 526.179 987.935 526.179C987.935 526.179 1344.94 652.868 1351.34 421.246C1355.2 281.664 1188.65 271.034 1132.54 251.365C1076.87 231.858 1067.23 141.472 1178.59 155.074C1288.64 168.513 1321.58 199.011 1321.58 199.011V100.133Z" fill="white"/>
</svg>
